<svg width="20" height="20" viewBox="0 0 20 20" fill="none" xmlns="http://www.w3.org/2000/svg">
<g id="&#208;&#161;&#208;&#187;&#208;&#190;&#208;&#185; 2">
<g id="Icon">
<path id="2" d="M9.78 19.36C8.28232 19.3635 6.80451 19.0173 5.46424 18.3489C4.12398 17.6805 2.95829 16.7084 2.06 15.51C1.21947 14.3583 0.661978 13.0249 0.432653 11.6176C0.203327 10.2104 0.308617 8.76896 0.739997 7.41C-0.460003 5.08 -2.80142e-06 3.5 0.679997 1.14L0.999997 0L3.82 2.25C8.7 -0.59 11.42 -0.0899999 15.73 2.25L18.5 0L18.75 0.64C19.2378 1.68597 19.4956 2.82441 19.5059 3.97849C19.5163 5.13257 19.279 6.27545 18.81 7.33C19.2313 8.66268 19.3331 10.0758 19.1072 11.4551C18.8814 12.8344 18.3343 14.1412 17.51 15.27C16.6306 16.5082 15.4734 17.5232 14.131 18.2335C12.7886 18.9437 11.2984 19.3296 9.78 19.36ZM1.55 1.72C0.919997 3.94 0.639997 5.14 1.72 7.12L1.82 7.31L1.76 7.51C1.33659 8.74295 1.21551 10.0596 1.40693 11.3491C1.59835 12.6386 2.09669 13.8632 2.86 14.92C3.66619 15.9923 4.71156 16.8617 5.91291 17.4589C7.11425 18.0561 8.43841 18.3647 9.78 18.36C11.1362 18.3341 12.4676 17.9926 13.6688 17.3625C14.87 16.7324 15.9078 15.8311 16.7 14.73C17.4563 13.7085 17.9526 12.5183 18.1459 11.2622C18.3393 10.006 18.224 8.72163 17.81 7.52L17.75 7.35L17.81 7.19C18.74 4.62 18.65 3.38 18.05 1.68L15.83 3.46L15.54 3.3C11.06 0.81 8.76 0.45 4 3.29L3.7 3.47L1.55 1.72Z" fill="#243238"/>
<path id="1" d="M4.52 9.24C4.57974 10.5771 5.16676 11.836 6.15258 12.7412C7.1384 13.6464 8.44271 14.1242 9.78 14.07C10.3389 14.0731 10.8951 13.9922 11.43 13.83L10.66 9.33L14.44 11.5C14.8405 10.8142 15.051 10.0341 15.05 9.24C15.0809 8.96768 15.0492 8.6919 14.9574 8.43368C14.8655 8.17546 14.7159 7.94162 14.52 7.75C12.9724 8.16026 11.3808 8.38187 9.78 8.41C8.16587 8.38372 6.56086 8.16211 5 7.75C4.81477 7.9474 4.67564 8.18343 4.59264 8.44108C4.50964 8.69874 4.48483 8.9716 4.52 9.24Z" fill="#D84316"/>
</g>
</g>
</svg>
